<svg width="24" height="24" viewBox="0 0 24 24" fill="none" xmlns="http://www.w3.org/2000/svg">
<g clip-path="url(#clip0_92_564)">
<mask id="mask0_92_564" style="mask-type:luminance" maskUnits="userSpaceOnUse" x="0" y="0" width="24" height="24">
<path d="M23.8704 0.0102539H0.0898438V23.9621H23.8704V0.0102539Z" fill="white"/>
</mask>
<g mask="url(#mask0_92_564)">
<path d="M18.8841 16.9583C19.4917 16.9197 20.1042 16.9189 20.7055 16.8309C21.2002 16.7586 21.6817 16.5845 22.1689 16.4532C22.4042 16.3897 22.6351 16.2994 22.8735 16.2589C23.2228 16.1995 23.5361 16.3003 23.7411 16.6269C23.9342 16.9345 23.8865 17.2527 23.7423 17.5734C22.996 19.2349 21.8093 20.4913 20.437 21.5574C18.7568 22.8628 16.8313 23.5254 14.7846 23.7908C12.8943 24.0362 11.0008 24.0447 9.12866 23.6024C6.41716 22.9618 4.08005 21.6403 2.34538 19.2781C0.640705 16.957 -0.0148835 14.3045 0.225869 11.3914C0.438099 8.71153 1.32111 6.14052 2.7835 3.94458C3.627 2.66543 4.63097 1.54302 5.89562 0.713438C6.37195 0.400554 6.86796 0.141658 7.44419 0.10929C8.04103 0.0762751 8.2489 0.391684 7.98447 0.961672C7.60733 1.77474 7.28393 2.60548 7.1259 3.50239C6.90801 4.73861 6.98282 5.95961 7.24411 7.17975C7.80712 9.80808 8.88626 12.1447 10.6813 14.0774C12.1 15.631 13.9933 16.5977 16.0222 16.8043C16.9714 16.9123 17.9274 16.9531 18.8802 17.0246C18.8813 17.0034 18.8827 16.9807 18.8841 16.9583ZM20.9294 18.8256L20.8533 18.6931C20.5777 18.7074 20.3007 18.7083 20.0267 18.7379C18.8141 18.8568 17.5937 18.8496 16.3825 18.7164C13.2385 18.4042 10.6822 16.9425 8.71351 14.3312C7.23743 12.36 6.23007 10.0403 5.77653 7.56854C5.42693 5.73794 5.44115 3.94342 6.0821 2.18198C6.095 2.14659 6.06495 2.09358 6.04493 2.00381C5.82358 2.21075 5.6192 2.38205 5.43627 2.57571C2.91807 5.24624 1.6406 8.48491 1.57921 12.2505C1.53806 14.7691 2.29538 16.9902 3.9268 18.8565C5.37609 20.5144 7.19756 21.446 9.23883 21.9329C11.2336 22.4088 13.2464 22.366 15.2518 22.0138C16.8676 21.73 18.3693 21.1192 19.6698 20.0374C20.1148 19.668 20.511 19.2316 20.9294 18.8256Z" fill="#949494"/>
</g>
</g>
<defs>
<clipPath id="clip0_92_564">
<rect width="24" height="24" fill="white"/>
</clipPath>
</defs>
</svg>
